<!DOCTYPE svg PUBLIC "-//W3C//DTD SVG 1.1//EN" "http://www.w3.org/Graphics/SVG/1.1/DTD/svg11.dtd">
<!-- Uploaded to: SVG Repo, www.svgrepo.com, Transformed by: SVG Repo Mixer Tools -->
<svg fill="#df2626" width="800px" height="800px" viewBox="-268.8 -268.8 1177.60 1177.60" xmlns="http://www.w3.org/2000/svg" stroke="#df2626" transform="rotate(0)" stroke-width="11.52">
<g id="SVGRepo_bgCarrier" stroke-width="0" transform="translate(0,0), scale(1)">
<rect x="-268.8" y="-268.8" width="1177.60" height="1177.60" rx="117.76" fill="#f5b2c0" strokewidth="0"/>
</g>
<g id="SVGRepo_tracerCarrier" stroke-linecap="round" stroke-linejoin="round" stroke="#CCCCCC" stroke-width="2.56"/>
<g id="SVGRepo_iconCarrier">
<path d="M633.8 458.1L362.3 248.3C412.1 230.7 448 183.8 448 128 448 57.3 390.7 0 320 0c-67.1 0-121.5 51.8-126.9 117.4L45.5 3.4C38.5-2 28.5-.8 23 6.2L3.4 31.4c-5.4 7-4.2 17 2.8 22.4l588.4 454.7c7 5.4 17 4.2 22.5-2.8l19.6-25.3c5.4-6.8 4.1-16.9-2.9-22.3zM96 422.4V464c0 26.5 21.5 48 48 48h350.2L207.4 290.3C144.2 301.3 96 356 96 422.4z"/>
</g>
</svg>